<svg width="319" height="236" viewBox="0 0 319 236" fill="none" xmlns="http://www.w3.org/2000/svg">
<path d="M315.593 32.6991C314.494 32.9573 288.459 39.227 268.181 54.0526C248.69 68.3082 239.211 70.4934 231.216 71.499C230.808 71.5556 230.444 71.7474 230.122 71.9857C228.386 71.15 226.545 70.455 224.588 69.8844C241.514 28.87 266.331 5.01449 266.587 4.77533C267.603 3.80954 267.649 2.19752 266.693 1.16371C265.74 0.129171 264.14 0.0715488 263.124 1.0338C262.059 2.03974 236.909 26.1542 219.537 68.7875C218.477 68.6268 217.439 68.4133 216.339 68.3387C200.663 67.2566 187.401 75.3778 186.715 86.4683C186.516 89.7039 187.436 92.8322 189.187 95.6739C182.512 92.3857 172.603 92.1937 162.44 95.5669C160.929 92.9595 159.369 90.2289 157.724 87.3317C155.25 82.9702 154.041 80.8428 153.5 80.0801C153.076 79.4741 152.733 78.8695 152.426 78.3348C151.573 76.8389 150.503 74.9857 148.354 75.1476C146.029 75.3579 144.771 77.9735 143.356 81.7139C141.238 87.2903 141.819 99.412 142.575 107.892C140.497 110.119 138.829 112.455 137.64 114.823L114.555 97.0498L113.882 96.6814C111.101 95.6671 108.864 95.7922 107.24 97.0235C105.601 98.2656 105.283 100.164 105.235 101.129L94.6461 135.128C85.6472 130.847 80.1006 128.874 78.1541 129.286C76.7702 129.578 73.8871 130.188 34.2592 209.811C34.2027 209.994 28.2805 227.934 3.12724 230.772C1.74359 230.98 0.759077 232.194 0.91756 233.6C1.08304 235.005 2.34011 236.012 3.72725 235.856C5.63784 235.637 7.45133 235.338 9.17071 234.975C32.959 229.946 38.8099 212.22 38.9223 211.767C52.5365 184.43 74.9868 140.553 79.6303 134.42C81.7728 134.919 87.1241 137.229 93.1064 140.071L90.1652 149.507C79.3627 164.206 73.357 183.133 75.7716 195.729L74.2768 200.523C74.2653 200.607 73.1804 209.221 58.8162 209.075C57.4249 209.073 56.2883 210.191 56.2766 211.603C56.2683 213.014 57.3963 214.171 58.7907 214.187C61.4511 214.217 63.7709 213.982 65.7943 213.554C74.7512 211.66 77.7767 206.025 78.7537 203.221C79.4047 204.142 80.1186 204.997 80.9598 205.73C92.8608 216.087 119.871 202.555 136.517 182.943C144.437 173.605 149.415 163.217 151.217 153.763C157.69 169.257 166.744 193.745 174.737 217.028L175.18 217.827C177.538 220.71 185.565 230.222 189.757 231.504C190.184 231.639 190.613 231.648 191.011 231.564C191.878 231.381 192.635 230.729 192.898 229.8C193.299 228.45 192.531 227.025 191.2 226.618C189.412 226.071 183.707 220.205 179.351 214.936C173.056 196.61 160.166 160.056 151.794 142.817C151.6 140.949 151.226 139.178 150.689 137.504C153.956 138.035 157.577 138.068 161.373 137.58C161.995 137.726 162.623 137.62 163.166 137.305C166.184 136.8 169.282 135.964 172.402 134.797C181.301 146.567 196.968 167.503 200.467 173.535C200.931 174.332 201.338 175.083 201.728 175.788C205.836 183.338 208.976 185.568 223.888 182.415C226.638 181.834 229.799 181.07 233.444 180.11C234.794 179.762 235.595 178.371 235.247 177.002C234.886 175.635 233.383 174.691 232.162 175.168C210.273 180.875 209.383 179.291 206.15 173.34C205.749 172.6 205.308 171.808 204.826 170.963C201.253 164.821 186.267 144.758 177.198 132.755C178.071 132.326 178.913 131.87 179.752 131.401C181.936 133.803 183.686 135.106 185.12 135.428C185.697 135.55 186.269 135.562 186.804 135.449C187.3 135.345 187.763 135.136 188.168 134.839C189.878 133.604 190.843 132.971 191.363 132.65C192.132 132.61 192.858 132.242 193.32 131.559L194.568 129.623L193.046 128.106C191.336 126.391 189.421 127.625 185.794 130.26C185.299 129.988 184.683 129.459 183.967 128.715C187.826 125.986 190.992 122.878 193.28 119.627C202.839 116.059 210.681 113.554 212.688 113.792C213.385 113.878 213.888 113.957 214.251 114.02C214.25 114.72 214.36 115.64 214.811 116.7C215.579 118.502 240.832 161.075 252.006 164.745C255.954 166.03 258.835 166.121 261.235 165.606C263.391 165.15 265.169 164.219 266.993 163.26C268.793 162.313 270.659 161.331 273.225 160.599C274.574 160.211 275.337 158.799 274.948 157.441C274.553 156.074 272.984 155.315 271.819 155.676C268.753 156.561 266.576 157.713 264.65 158.723C261.148 160.551 259.032 161.679 253.54 159.88C245.488 157.246 221.334 119.043 219.439 114.692C219.265 114.285 219.28 114.042 219.319 113.589C219.632 109.475 216.086 109.055 213.241 108.721C210.623 108.412 203.94 110.387 196.645 112.958C197.714 109.535 197.747 106.149 196.497 103.087C196.467 103.012 196.42 102.948 196.39 102.877C201.079 105.971 207.14 108.049 213.85 108.514C214.973 108.591 223.045 107.969 233.44 104.435C241.121 101.824 241.037 93.9338 251.458 92.3857L245.821 90.8097L252.393 88.3286L245.926 86.2138C241.496 83.2908 243.66 83.8696 241.012 81.2063C239.817 79.2647 238.224 77.4627 236.3 75.8565C236.633 75.7934 236.935 75.7703 237.277 75.6979C244.98 74.0696 254.764 70.2027 271.139 58.2192C290.588 43.9945 316.489 37.7529 316.757 37.6889C318.113 37.3654 318.947 35.9937 318.62 34.6197C318.306 33.2392 316.897 32.564 315.593 32.6991ZM148.071 83.5701C148.314 82.9414 148.524 82.4124 148.709 81.9737C148.925 82.3239 149.158 82.6853 149.409 83.0394C149.822 83.6293 151.457 86.5139 153.354 89.854C154.872 92.5302 156.296 95.0157 157.681 97.424C153.809 99.1382 150.322 101.226 147.32 103.57C146.783 95.85 146.653 87.3076 148.071 83.5701ZM110.165 102.344L110.247 101.143C110.282 101.135 110.703 101.006 111.844 101.379L135.835 119.841C135.516 121.374 135.442 122.888 135.589 124.363C125.336 122.664 112.142 127.706 100.589 138.042C100.131 137.813 99.6827 137.589 99.2381 137.369L110.165 102.344Z" fill="black"/>
</svg>
