<svg width="49" height="50" viewBox="0 0 49 50" fill="none" xmlns="http://www.w3.org/2000/svg">
<path d="M18.1543 41.4436C19.8209 42.6658 21.7653 43.3324 23.9319 43.3324C29.7095 43.3324 34.3205 38.7215 34.3205 33.055C34.3205 30.8884 33.6539 28.8884 32.4872 27.2773L18.1543 41.4436Z" fill="white"/>
<path d="M24.1542 22.6133C18.4877 22.6133 13.7656 27.3354 13.7656 33.0019C13.7656 35.6129 14.6545 37.9462 16.2656 39.7795L30.9318 25.2243C29.0985 23.5577 26.8208 22.6133 24.1542 22.6133Z" fill="white"/>
<path d="M48.4313 26.2229C48.098 25.3896 43.5425 21.5008 39.5427 21.1119C36.4316 20.7786 34.3206 18.9453 33.3762 17.9454C33.2095 17.7232 33.0428 17.5009 32.8206 17.2787C32.5429 16.9454 32.2095 16.6121 31.8762 16.3343C31.8207 15.3899 31.9873 13.8344 33.0984 12.39C34.6539 10.39 34.8761 6.61237 34.6539 6.11238C34.0984 5.05686 33.4317 4.83464 33.3762 5.89017C33.3206 6.94569 33.3206 9.16785 32.4317 10.7234C31.4318 12.4455 30.0429 14.2788 29.654 14.7788C29.0985 14.4455 28.4874 14.1122 27.8208 13.8899C28.2096 13.2788 28.4874 12.5011 28.4874 11.7233C28.4874 10.8345 28.1541 10.0012 27.6541 9.33451C29.4874 7.33457 33.5984 3.00136 35.8761 1.66807C38.8205 -0.0541026 35.8761 0.0570051 35.8761 0.0570051L25.9875 7.94566C25.3208 7.61234 24.4875 7.39013 23.6542 7.39013C22.8209 7.39013 22.0432 7.61234 21.3765 7.94566L11.599 0.0014512C11.599 0.0014512 8.65466 -0.109657 11.599 1.61252C13.8767 2.89026 17.9322 7.22346 19.7654 9.22341C19.2099 9.89005 18.8766 10.7234 18.8766 11.6678C18.8766 12.5566 19.1544 13.3344 19.6543 14.001C19.2655 14.1677 18.821 14.3899 18.4322 14.6121C17.8766 13.9455 16.6544 12.2789 15.7656 10.7234C14.8767 9.16785 14.8767 6.94569 14.8211 5.89017C14.71 4.83464 14.0434 5.05686 13.5434 6.11238C13.3212 6.61237 13.5434 10.39 15.0989 12.39C16.0433 13.6122 16.2655 15.0566 16.3211 16.001C15.0989 17.0565 13.9323 18.3343 12.9879 19.8342C11.9879 20.4453 10.7102 20.9453 9.2102 21.1119C5.21031 21.5564 0.654891 25.3896 0.321567 26.2229C-0.400634 28.0006 0.154905 29.0006 1.37709 27.8895C2.59928 26.834 5.21031 24.4452 7.93246 23.723C9.04354 23.4452 10.2102 23.223 11.3212 23.0563C10.3213 25.6118 9.71018 28.5006 9.71018 31.6116C9.71018 32.7227 9.82129 33.7782 9.9324 34.7782C9.32131 35.0004 8.65466 35.3893 8.37689 36.1671C7.7658 37.8337 8.37689 42.2224 7.82135 43.7224C7.32136 45.2779 4.71033 46.3334 3.98813 47.2779C3.26593 48.2223 3.98813 50 3.98813 50H5.37698L6.65472 48.1112C6.65472 48.1112 9.43241 46.7223 10.1546 45.2224C10.5435 44.5002 10.8213 41.8891 11.0435 39.3892C13.3212 45.6112 18.2099 50 23.8764 50C29.2652 50 33.9317 46.1112 36.3205 40.3336C36.5427 42.5002 36.8205 44.5557 37.0983 45.1668C37.8205 46.6668 40.5982 48.0556 40.5982 48.0556L41.8759 49.9444H43.2648C43.2648 49.9444 43.987 48.1667 43.2648 47.2223C42.5426 46.2779 39.9315 45.2224 39.4315 43.6668C38.9316 42.1113 39.5427 37.7226 38.9316 36.056C38.7093 35.5004 38.2649 35.1115 37.8205 34.8893C37.9316 33.8338 38.0427 32.7227 38.0427 31.5561C38.0427 28.3895 37.4316 25.4452 36.3761 22.8341C37.7094 23.0008 39.3204 23.2786 40.7648 23.6674C43.487 24.3341 46.0425 26.7785 47.3202 27.834C48.5979 29.0006 49.0979 28.0006 48.4313 26.2229ZM36.6539 33.0005C36.6539 40.0003 30.9873 45.7223 23.932 45.7223C16.8766 45.7223 11.2657 40.0003 11.2657 33.0005C11.2657 26.0007 16.9322 20.2786 23.9875 20.2786C31.0985 20.2786 36.6539 26.0007 36.6539 33.0005Z" fill="white"/>
</svg>
