<svg width="43" height="36" viewBox="0 0 43 36" fill="none" xmlns="http://www.w3.org/2000/svg">
<path d="M42.6935 31.445C42.6935 33.4015 41.0929 35.0027 39.1359 35.0027H3.55763C1.60116 35.0027 0 33.402 0 31.445V4.40478C0 2.44831 1.60066 0.847656 3.55763 0.847656H39.1359C41.0924 0.847656 42.6935 2.44781 42.6935 4.40478V31.445ZM3.55763 3.69416C3.17976 3.69416 2.8465 4.02842 2.8465 4.40478V31.445C2.8465 31.8229 3.17976 32.1562 3.55763 32.1562H39.1359C39.5122 32.1562 39.848 31.8229 39.848 31.445V4.40478C39.848 4.02842 39.5122 3.69416 39.1359 3.69416H3.55763ZM9.96226 15.0782C7.60537 15.0782 5.692 13.1658 5.692 10.8094C5.692 8.45303 7.60537 6.53966 9.96226 6.53966C12.3186 6.53966 14.2305 8.45303 14.2305 10.8094C14.2305 13.1658 12.3186 15.0782 9.96226 15.0782ZM37.0005 29.3107H5.692V25.0399L12.8083 17.9262L16.3659 21.4833L27.7499 10.0988L37.0005 19.3489V29.3107Z" fill="white"/>
</svg>
