<svg width="300" height="251" viewBox="0 0 300 251" fill="none" xmlns="http://www.w3.org/2000/svg">
<path d="M297.398 251C298.885 251 300 249.901 300 248.435C300 248.069 299.628 247.336 299.628 246.969L286.617 227.549C285.874 226.816 285.13 226.083 284.015 225.717L224.535 204.831C250.929 193.838 268.03 181.38 270.26 179.914C278.067 175.15 283.271 166.356 283.271 156.829C283.271 141.439 270.632 128.981 255.019 128.981L240.892 128.981C240.892 128.248 240.892 127.515 240.892 126.416L240.892 126.05L240.892 125.683C240.892 124.95 240.892 123.851 240.892 123.118L255.019 123.118C270.632 123.118 283.271 110.66 283.271 95.2701C283.271 85.3766 278.067 76.9489 270.26 72.1854C268.401 70.7197 250.558 58.2613 224.164 47.2686L224.164 46.5358L284.015 25.2832C285.13 24.9168 285.874 24.1839 286.617 23.4511L299.628 4.03066C300 3.66424 300 3.29781 300 2.56496C300 1.09927 298.885 -4.87488e-08 297.398 -1.13747e-07C296.654 -1.46246e-07 296.283 0.366422 295.539 0.732846L280.669 17.2219L216.729 35.5431C214.126 35.9095 212.268 38.108 211.896 40.673L211.896 41.7723C180.669 30.4131 139.777 23.0847 97.7695 34.8102L86.6171 17.9547C86.2454 17.2219 85.5019 16.8555 84.3866 16.8555C82.8996 16.8555 81.7844 17.9547 81.7844 19.4204C81.7844 20.1533 82.1561 20.5197 82.1561 20.8861L90.3346 37.0087C85.1301 38.8409 79.9257 40.673 74.7212 43.2379C74.3495 43.2379 73.9777 43.6044 73.606 43.6044C72.8625 43.9708 72.4907 44.7036 72.4907 45.8029C72.4907 47.2686 73.606 48.3679 75.093 48.3679C75.4647 48.3679 75.8364 48.3679 76.2082 48.0015C81.7844 45.4365 86.9888 43.6044 92.5651 41.7723L94.4238 45.4365C94.4238 45.8029 94.7955 45.8029 94.7955 46.1693C95.539 47.2686 97.026 48.0015 98.513 48.0015L169.888 53.8642L169.145 85.3766C169.145 89.0409 172.119 91.9723 175.836 91.9723C179.554 91.9723 182.528 89.0409 182.528 85.3766L181.784 48.3679C181.784 45.0701 179.182 42.1387 175.465 42.1387L100.372 39.5737C140.149 30.4131 179.554 37.7416 211.152 48.7343L207.435 81.346C207.435 81.7124 207.435 82.4452 207.435 82.8117C207.435 86.4759 210.409 89.4073 214.126 89.4073C217.844 89.4073 220.818 86.4759 220.818 82.8117L223.048 53.4978C236.803 58.9942 248.699 64.8569 257.249 69.9869C260.595 71.819 270.26 79.8803 270.26 79.8803C274.721 83.9109 277.695 90.5066 277.695 96.7358C277.695 109.194 268.401 117.622 255.762 117.622L239.405 117.622C237.546 112.492 233.829 107.728 228.996 105.164L228.253 104.797L220.074 100.034L218.959 99.3007C214.498 96.7358 209.665 95.6365 204.089 95.6365C190.706 95.6365 179.554 104.064 175.465 115.79C172.491 104.797 164.312 96.3693 153.532 92.3387L152.045 91.6058L99.2565 72.5518C91.4498 68.8876 82.8996 66.689 73.606 66.689C43.1227 66.689 18.2156 89.0409 14.4981 117.988C12.6394 118.355 10.7807 119.088 9.66546 120.553C9.2937 120.92 5.57623 123.118 2.60226 123.118C1.11526 123.118 -5.42972e-06 124.218 -5.47777e-06 125.317C-5.54184e-06 126.782 1.11526 127.882 2.60226 127.882C5.94796 127.882 9.2937 130.447 9.66546 130.447C10.7807 131.912 12.6394 132.645 14.4981 133.012C18.2156 161.959 43.4944 184.311 73.6059 184.311C82.5279 184.311 91.0781 182.479 98.8848 178.815L152.788 159.394L153.903 159.028C164.312 154.997 172.491 146.203 175.836 135.577C179.926 147.302 191.45 155.73 204.461 155.73C209.294 155.73 214.126 154.631 218.216 152.432L226.766 148.401L227.138 148.035C227.509 147.669 227.881 147.669 228.253 147.302L228.996 146.936C233.829 144.004 237.546 139.607 239.405 134.477L255.762 134.477C268.401 134.477 277.695 143.272 277.695 155.363C277.695 161.959 273.978 168.555 269.517 172.585C269.517 172.585 260.595 180.28 257.249 182.112C248.699 186.876 237.175 193.105 223.42 198.601L221.19 168.188C221.19 164.524 218.216 161.593 214.498 161.593C210.781 161.593 207.807 164.524 207.807 168.188C207.807 168.555 207.807 169.288 207.807 169.654L211.524 203.365C179.926 214.358 140.149 221.686 100.372 211.793L101.115 210.693L176.208 208.128C179.554 208.128 182.528 205.564 182.528 201.899L183.271 164.891C183.271 161.226 180.297 158.295 176.58 158.295C172.862 158.295 169.888 161.226 169.888 164.891L170.632 196.403L99.2565 202.266C97.7695 202.266 96.2825 202.999 95.539 204.098C95.539 204.464 95.1673 204.464 95.1673 204.831L92.9368 209.594C87.7324 207.762 82.5279 205.93 77.3234 203.731C76.9517 203.731 76.5799 203.365 76.2082 203.365C74.7212 203.365 73.6059 204.464 73.6059 205.93C73.6059 206.663 73.9777 207.396 74.7212 208.128C75.0929 208.128 75.4647 208.495 75.8364 208.495C80.6691 210.693 85.8736 212.892 90.7063 214.358L83.2714 229.381C82.8996 229.747 82.8996 230.114 82.8996 230.847C82.8996 232.312 84.0149 233.412 85.5019 233.412C86.2454 233.412 86.9889 233.045 87.7323 232.312L98.1413 216.556C140.52 228.648 181.784 221.32 213.383 209.961C213.755 212.526 215.613 214.724 218.216 215.091L282.156 233.412L297.026 249.901C296.283 250.634 296.654 251 297.398 251Z" fill="black"/>
</svg>
