<svg width="50" height="50" viewBox="0 0 50 50" fill="none" xmlns="http://www.w3.org/2000/svg">
<g clip-path="url(#clip0_487_3198)">
<path d="M49.0024 20.9991L39.3041 14.7493C39.2282 14.7011 39.1446 14.6828 39.063 14.6558V12.5003C39.063 11.9247 38.5972 11.4585 38.0213 11.4585H34.1533L26.0739 6.40874C25.7363 6.19709 25.307 6.19709 24.9691 6.40874L16.8897 11.4585H11.9799C11.4043 11.4585 10.9381 11.9244 10.9381 12.5003V14.6552C10.8566 14.6822 10.7727 14.7008 10.6971 14.7493L0.998757 20.9991C0.701661 21.1913 0.521484 21.5211 0.521484 21.8748V48.958C0.521484 49.5336 0.987365 49.9997 1.56327 49.9997H48.4379C49.0135 49.9997 49.4797 49.5339 49.4797 48.958V21.8751C49.4797 21.5211 49.2995 21.1916 49.0024 20.9991ZM25.5216 8.52079L30.2227 11.4585H20.8206L25.5216 8.52079ZM13.0217 13.5417H36.9798V36.9791C36.9798 36.9821 36.9816 36.9845 36.9816 36.9878L33.4578 39.1274L24.9784 34.5025C24.6621 34.3316 24.2775 34.3325 23.9633 34.5127L16.2256 38.9343L13.0202 36.9881C13.0202 36.9851 13.022 36.9827 13.022 36.9797L13.0217 13.5417ZM2.60506 22.4426L10.9381 17.0733V35.7241L2.60506 30.6642V22.4426ZM2.60506 33.1006L14.1582 40.1149L2.60506 46.717V33.1006ZM4.70422 47.9168L24.4921 36.61L45.2214 47.9168H4.70422ZM47.3964 46.7299L35.5713 40.2801L47.3964 33.1003V46.7299ZM47.3964 30.6642L39.063 35.7238V17.0733L47.3964 22.4429V30.6642Z" fill="white"/>
<path d="M17.1883 23.9584H29.6882C30.2638 23.9584 30.73 23.4925 30.73 22.9166V16.6668C30.73 16.0912 30.2641 15.625 29.6882 15.625H17.1883C16.6127 15.625 16.1465 16.0909 16.1465 16.6668V22.9166C16.1465 23.4925 16.6127 23.9584 17.1883 23.9584ZM18.2298 17.7083H28.6464V21.8748H18.2298V17.7083Z" fill="white"/>
<path d="M32.813 26.0391H16.1465V28.1223H32.813V26.0391Z" fill="white"/>
<path d="M32.813 30.207H16.1465V32.2903H32.813V30.207Z" fill="white"/>
<path d="M44.2719 12.5001C44.5384 12.5001 44.8049 12.3984 45.0085 12.1949L48.6909 8.51249C49.0977 8.10567 49.0977 7.44642 48.6909 7.0396C48.284 6.63248 47.6248 6.63278 47.218 7.0396L43.5356 10.722C43.1288 11.1288 43.1288 11.788 43.5356 12.1949C43.7388 12.3984 44.0054 12.5001 44.2719 12.5001Z" fill="white"/>
<path d="M4.99237 12.1948C5.19593 12.3983 5.46245 12.4999 5.72897 12.4999C5.99548 12.4999 6.262 12.3983 6.46556 12.1948C6.87238 11.7879 6.87238 11.1287 6.46556 10.7219L2.78289 7.03949C2.37607 6.63267 1.71682 6.63267 1.31 7.03949C0.903178 7.44631 0.903178 8.10556 1.31 8.51238L4.99237 12.1948Z" fill="white"/>
<path d="M35.552 7.21771C35.6782 7.26867 35.8095 7.29176 35.9384 7.29176C36.3515 7.29176 36.743 7.04443 36.9058 6.63671L38.9891 1.42838C39.2029 0.894445 38.9423 0.287962 38.4084 0.074508C37.8796 -0.138046 37.268 0.119177 37.0545 0.65521L34.9713 5.86354C34.7575 6.39777 35.0177 7.00425 35.552 7.21771Z" fill="white"/>
<path d="M14.1385 6.63683C14.3013 7.04485 14.6928 7.29188 15.1059 7.29188C15.2351 7.29188 15.3664 7.2685 15.4923 7.21753C16.0263 7.00378 16.2868 6.39759 16.073 5.86366L13.9898 0.655334C13.776 0.119302 13.1659 -0.138222 12.6359 0.0746323C12.102 0.288386 11.8414 0.89457 12.0552 1.4285L14.1385 6.63683Z" fill="white"/>
</g>
<defs>
<clipPath id="clip0_487_3198">
<rect width="50" height="50" fill="white"/>
</clipPath>
</defs>
</svg>
