<svg width="258" height="262" viewBox="0 0 258 262" fill="none" xmlns="http://www.w3.org/2000/svg">
<path d="M239.686 185.874C229.91 174.087 205.24 143.052 184.607 117.001L187.265 115.331C188.006 114.94 191.867 112.534 194.821 103.765C197.337 96.3007 202.577 79.818 203.286 77.6119C203.67 76.9107 205.492 73.9744 209.051 73.9744C210.766 73.9744 212.153 72.5877 212.153 70.8728C212.153 69.163 210.769 67.7737 209.051 67.7737C201.085 67.7737 197.729 74.8254 197.595 75.1274C197.542 75.243 197.495 75.3638 197.456 75.4872C197.4 75.671 191.614 93.8635 188.949 101.784C186.771 108.229 184.279 109.897 184.166 109.965L180.741 112.116C172.534 101.742 165.224 92.4926 160.079 85.9741L173.033 72.0861C174.212 71.0802 177.752 67.3272 177.629 58.6657C177.524 51.3882 177.718 29.6791 177.718 29.4191C177.857 29.0435 178.711 27.2051 183.047 24.0904C184.439 23.0924 184.759 21.1542 183.759 19.7648C182.763 18.3729 180.825 18.0551 179.436 19.0557C172.405 24.0983 171.386 27.6673 171.52 29.5372C171.496 31.7591 171.325 51.6639 171.428 58.755C171.52 65.1999 169.122 67.2773 169.106 67.2931C168.938 67.4165 168.783 67.5531 168.639 67.7054L156.197 81.0523C156.021 80.8265 155.832 80.5849 155.661 80.3774C154.787 79.0747 153.812 77.8377 152.749 76.6769C152.549 76.4248 152.415 76.2514 152.415 76.2514V76.3066C149.292 73.0106 145.45 70.3528 141.119 68.5774C142.795 67.9759 144.176 67.2616 145.198 66.4632C149.663 65.5335 153.017 61.5809 153.017 56.8404C153.017 51.4092 148.615 47.0075 143.186 47.0075C142.797 47.0075 142.435 47.0784 142.051 47.1204C142.062 46.9681 142.112 46.8236 142.112 46.6713C142.112 42.6898 139.175 39.2677 134.894 37.4897C151.945 27.4677 161.576 12.2405 163.943 8.14866L169.264 5.97407C170.85 5.32538 171.609 3.51585 170.96 1.92955C170.312 0.343262 168.489 -0.418368 166.918 0.232956L160.589 2.81725C159.916 3.09301 159.362 3.59464 159.023 4.24071C158.916 4.44031 148.497 23.749 128.352 33.9941C108.278 23.7831 97.7936 4.44293 97.6859 4.24071C97.3497 3.59989 96.7929 3.09564 96.1179 2.8225L89.7935 0.238209C88.2229 -0.407863 86.4002 0.35114 85.7515 1.93481C85.1027 3.5211 85.8618 5.33063 87.4508 5.97933L92.7719 8.15391C95.1357 12.2457 104.764 27.473 121.82 37.495C117.536 39.273 114.6 42.6924 114.6 46.6739C114.6 46.8262 114.655 46.9707 114.66 47.123C114.282 47.081 113.912 47.0101 113.526 47.0101C108.097 47.0101 103.693 51.4118 103.693 56.843C103.693 61.5835 107.052 65.5335 111.511 66.4658C112.53 67.2642 113.917 67.9812 115.593 68.58C109.331 71.1538 104.089 75.5712 100.57 81.1128L88.068 67.7054C87.9813 67.6109 87.7896 67.4428 87.6871 67.3614C87.5873 67.2773 85.1868 65.1973 85.2813 58.7576C85.3838 51.6665 85.2104 31.7591 85.1894 29.5399C85.326 27.6699 84.3043 24.1035 77.2734 19.0584C75.8814 18.0577 73.9483 18.3781 72.9477 19.7675C71.9496 21.1594 72.2701 23.095 73.6594 24.093C77.9957 27.2077 78.8545 29.0461 78.9884 29.4217C78.9911 29.6817 79.1881 51.3908 79.0804 58.6683C78.9543 67.3272 82.4973 71.0829 83.6766 72.0861L97.3261 86.7252C92.1284 93.312 84.8979 102.467 76.8295 112.66L72.4592 109.916C72.4329 109.9 69.9352 108.229 67.7631 101.787C65.0921 93.8661 59.314 75.6737 59.2562 75.4898C59.2142 75.3664 59.1669 75.2456 59.1144 75.13C58.9778 74.828 55.6238 67.7763 47.6553 67.7763C45.9455 67.7763 44.5561 69.1657 44.5561 70.8754C44.5561 72.5877 45.9455 73.9771 47.6553 73.9771C51.2456 73.9771 53.0683 76.9501 53.4203 77.6066C54.1163 79.7891 59.3691 96.2928 61.8878 103.767C64.8452 112.534 68.7034 114.94 69.2444 115.218L72.9582 117.55C52.4196 143.488 28.0176 174.173 18.3129 185.876C0.222167 207.698 -6.50145 227.734 7.51573 235.377C24.6978 244.748 50.2423 190.667 50.2423 190.667L56.1307 179.849C56.0362 181.322 56.0651 182.953 56.2594 184.784C57.6042 197.267 58.9673 207.987 58.9909 208.161C58.9935 208.208 59.3901 212.371 53.528 219.02C46.568 226.923 22.2631 248.566 22.0871 248.727C21.5618 249.17 16.9419 253.21 16.9419 258.898C16.9419 260.611 18.3261 262 20.0411 262C21.7535 262 23.1429 260.613 23.1429 258.898C23.1429 256.516 25.2677 254.168 26.1423 253.415C27.1509 252.516 50.9725 231.304 58.1794 223.12C66.1164 214.112 65.2313 207.827 65.1315 207.312C65.1157 207.205 63.7631 196.539 62.4263 184.122C61.4203 174.796 65.8143 173.58 66.1453 173.501L97.5047 165.186C97.4627 166.061 97.3839 166.922 97.3839 167.81C97.3839 190.617 111.249 231.115 128.357 231.115C145.463 231.115 159.325 190.614 159.325 167.81C159.325 166.922 159.249 166.061 159.204 165.186L190.798 173.546C190.84 173.556 195.305 174.646 194.283 184.114C192.949 196.489 191.599 207.128 191.601 207.128C191.47 207.819 190.585 214.104 198.525 223.112C205.734 231.296 229.556 252.508 230.632 253.467C230.661 253.493 233.564 256.057 233.564 258.89C233.564 260.603 234.948 261.992 236.665 261.992C238.375 261.992 239.765 260.605 239.765 258.89C239.765 253.202 235.147 249.163 234.688 248.774C234.441 248.559 210.139 226.915 203.176 219.013C197.314 212.363 197.71 208.2 197.729 208.087C197.739 207.979 199.102 197.259 200.447 184.776C200.804 181.44 200.602 178.77 200.092 176.584L207.754 190.659C207.754 190.659 233.301 244.742 250.486 235.369C264.502 227.729 257.776 207.693 239.686 185.874ZM96.8402 105.094C98.466 111.252 101.97 116.691 106.76 120.791C104.772 122.443 103.629 124.342 103.629 126.369C103.629 127.856 104.255 129.274 105.368 130.577L88.6694 120.095L96.8402 105.094ZM64.7874 167.448C64.6587 167.474 63.6528 167.681 62.3764 168.385L85.7042 125.545L106.545 138.626C102.482 144.023 99.5218 150.873 98.1954 158.586L64.7874 167.448ZM160.263 103.439L168.998 119.488L151.341 130.574C152.455 129.271 153.077 127.856 153.077 126.369C153.077 124.342 151.937 122.443 149.949 120.791C155.162 116.329 158.863 110.283 160.263 103.439ZM192.15 167.5L158.514 158.584C157.187 150.87 154.227 144.023 150.164 138.626L171.966 124.935L196.46 169.916C194.359 167.96 192.237 167.511 192.15 167.5Z" fill="black"/>
</svg>
